<?xml version="1.0" encoding="utf-8"?>
<!-- Generator: Adobe Illustrator 26.0.0, SVG Export Plug-In . SVG Version: 6.00 Build 0)  -->
<svg version="1.1" id="Layer_1" xmlns="http://www.w3.org/2000/svg" xmlns:xlink="http://www.w3.org/1999/xlink" x="0px" y="0px"
	 viewBox="0 0 1000 1000" style="enable-background:new 0 0 1000 1000;" xml:space="preserve">
<style type="text/css">
	.st0{fill:#00AABC;}
	.st1{opacity:0.15;clip-path:url(#SVGID_00000101095892346247863690000008880057921168900796_);}
	.st2{clip-path:url(#SVGID_00000011004662675620080060000012659912895634575245_);fill:#231F20;}
	.st3{clip-path:url(#SVGID_00000092444019794568867500000014170707023424209558_);fill:#231F20;}
	.st4{clip-path:url(#SVGID_00000176013942595101334470000014692112875978188418_);fill:#231F20;}
	.st5{clip-path:url(#SVGID_00000008141574125998856880000004958057678374146727_);fill:#231F20;}
	.st6{clip-path:url(#SVGID_00000114768701343115020770000000355646904067701684_);fill:#FFFFFF;}
	.st7{clip-path:url(#SVGID_00000106129546214489133700000018261823300086411685_);fill:#FFFFFF;}
	.st8{clip-path:url(#SVGID_00000007398492676282966920000004527049786272226223_);fill:#FFFFFF;}
	.st9{clip-path:url(#SVGID_00000011020620016905088920000010825798960250622895_);}
	.st10{fill:#FFFFFF;}
</style>
<g>
	<rect x="0" class="st0" width="1000" height="1000"/>
	<g>
		<defs>
			<rect id="SVGID_1_" width="1000" height="1000"/>
		</defs>
		<clipPath id="SVGID_00000106829065567719252970000008449602369756084619_">
			<use xlink:href="#SVGID_1_"  style="overflow:visible;"/>
		</clipPath>
		<g style="opacity:0.15;clip-path:url(#SVGID_00000106829065567719252970000008449602369756084619_);">
			<g>
				<defs>
					<rect id="SVGID_00000072276356925545330390000005842194246636772769_" x="66.57" width="160.47" height="1002.07"/>
				</defs>
				<clipPath id="SVGID_00000001656219643973144530000012571063467219322778_">
					<use xlink:href="#SVGID_00000072276356925545330390000005842194246636772769_"  style="overflow:visible;"/>
				</clipPath>
				
					<rect x="68.25" style="clip-path:url(#SVGID_00000001656219643973144530000012571063467219322778_);fill:#231F20;" width="157.12" height="1000"/>
			</g>
		</g>
		<g style="opacity:0.15;clip-path:url(#SVGID_00000106829065567719252970000008449602369756084619_);">
			<g>
				<defs>
					<rect id="SVGID_00000160876051983384624190000000584532603618188204_" x="679.27" width="160.48" height="1002.07"/>
				</defs>
				<clipPath id="SVGID_00000172420986068270933750000004149935313601989557_">
					<use xlink:href="#SVGID_00000160876051983384624190000000584532603618188204_"  style="overflow:visible;"/>
				</clipPath>
				
					<rect x="680.95" style="clip-path:url(#SVGID_00000172420986068270933750000004149935313601989557_);fill:#231F20;" width="157.12" height="1000"/>
			</g>
		</g>
		<g style="opacity:0.15;clip-path:url(#SVGID_00000106829065567719252970000008449602369756084619_);">
			<g>
				<defs>
					<rect id="SVGID_00000101098909516990555140000004914636803383655332_" x="498.32" width="160.48" height="1002.07"/>
				</defs>
				<clipPath id="SVGID_00000042018445067318371770000016251252467773504161_">
					<use xlink:href="#SVGID_00000101098909516990555140000004914636803383655332_"  style="overflow:visible;"/>
				</clipPath>
				
					<rect x="500" style="clip-path:url(#SVGID_00000042018445067318371770000016251252467773504161_);fill:#231F20;" width="157.12" height="1000"/>
			</g>
		</g>
		<g style="opacity:0.15;clip-path:url(#SVGID_00000106829065567719252970000008449602369756084619_);">
			<g>
				<defs>
					<rect id="SVGID_00000119105726637104848620000008277132905529585567_" x="720.54" width="160.47" height="1002.07"/>
				</defs>
				<clipPath id="SVGID_00000109717556432991000770000018087218202316285088_">
					<use xlink:href="#SVGID_00000119105726637104848620000008277132905529585567_"  style="overflow:visible;"/>
				</clipPath>
				
					<rect x="722.22" style="clip-path:url(#SVGID_00000109717556432991000770000018087218202316285088_);fill:#231F20;" width="157.12" height="1000"/>
			</g>
		</g>
		<g style="opacity:0.15;clip-path:url(#SVGID_00000106829065567719252970000008449602369756084619_);">
			<g>
				<defs>
					<rect id="SVGID_00000157270307725688491910000012586095272117090200_" x="576.88" width="160.48" height="1002.07"/>
				</defs>
				<clipPath id="SVGID_00000140016062408742390760000004583754829365630348_">
					<use xlink:href="#SVGID_00000157270307725688491910000012586095272117090200_"  style="overflow:visible;"/>
				</clipPath>
				
					<rect x="578.55" style="clip-path:url(#SVGID_00000140016062408742390760000004583754829365630348_);fill:#FFFFFF;" width="157.12" height="1000"/>
			</g>
		</g>
		<g style="opacity:0.15;clip-path:url(#SVGID_00000106829065567719252970000008449602369756084619_);">
			<g>
				<defs>
					<rect id="SVGID_00000110473078202909784800000001810681909105190308_" x="-31.84" width="160.48" height="1002.07"/>
				</defs>
				<clipPath id="SVGID_00000181053130159479387180000004293278126032762780_">
					<use xlink:href="#SVGID_00000110473078202909784800000001810681909105190308_"  style="overflow:visible;"/>
				</clipPath>
				
					<rect x="-30.16" style="clip-path:url(#SVGID_00000181053130159479387180000004293278126032762780_);fill:#FFFFFF;" width="157.12" height="1000"/>
			</g>
		</g>
		<g style="opacity:0.15;clip-path:url(#SVGID_00000106829065567719252970000008449602369756084619_);">
			<g>
				<defs>
					<rect id="SVGID_00000142867575549518754090000014150056285933618362_" x="361.49" width="160.47" height="1002.07"/>
				</defs>
				<clipPath id="SVGID_00000106846905531644069300000004603098504131840640_">
					<use xlink:href="#SVGID_00000142867575549518754090000014150056285933618362_"  style="overflow:visible;"/>
				</clipPath>
				
					<rect x="363.17" style="clip-path:url(#SVGID_00000106846905531644069300000004603098504131840640_);fill:#FFFFFF;" width="157.12" height="1000"/>
			</g>
		</g>
	</g>
</g>
<g>
	<g>
		<defs>
			<rect id="SVGID_00000130613099410118533580000013472139442414514087_" x="36.21" y="257.68" width="927.57" height="423.51"/>
		</defs>
		<clipPath id="SVGID_00000029042239807445906740000009398384192773205173_">
			<use xlink:href="#SVGID_00000130613099410118533580000013472139442414514087_"  style="overflow:visible;"/>
		</clipPath>
		<g style="clip-path:url(#SVGID_00000029042239807445906740000009398384192773205173_);">
			<g>
				<g>
					<g>
						<g>
							<rect x="692.36" y="371.17" class="st10" width="22.58" height="113.48"/>
						</g>
					</g>
					<g>
						<g>
							<g>
								<path class="st10" d="M312.72,411.2c-1.05,1.81-2.56,4.22-3.61,5.87H283.7v0.02c-7.64,0-13.87-6.22-13.87-13.86h0v-11.3
									h28.59c6.63,0,10.69,0.3,13.25,1.66c2.86,1.5,4.06,4.51,4.06,8.28C315.73,405.63,314.38,408.34,312.72,411.2 M327.17,426.25
									c1.81-2.71,4.06-6.17,6.17-9.78c3.16-5.42,5.12-10.24,5.12-17.31c0-8.73-4.36-17.31-11.44-22.28
									c-6.17-4.37-13.7-5.72-26.04-5.72h-51.9v32.06c0,19.08,15.53,34.61,34.62,34.61h13.22c7.68,0,12.04,0.45,15.35,2.25
									c4.22,2.41,5.87,6.02,5.87,10.99c0,4.06-0.9,6.92-3.61,9.33c-3.16,2.71-7.52,3.46-17.01,3.46h-27.69v-26.03h-20.75v46.81
									h47.99c16.1,0,25.74-2.71,32.81-8.28c7.53-5.87,11.14-14.6,11.14-25.29c0-6.47-1.96-12.49-4.82-16.25
									C333.49,431.21,330.48,428.81,327.17,426.25"/>
							</g>
						</g>
						<g>
							<g>
								<path class="st10" d="M440.07,429.71c6.47-7.68,9.94-14.3,9.94-24.68c0-10.38-3.91-19.87-10.54-25.59
									c-7.98-6.78-16.71-8.28-30.86-8.28h-49.07v53.28h21.23v-32.06h25.13c9.48,0,14.15,0.75,17.01,2.86
									c3.16,2.41,4.21,5.41,4.21,9.78c0,5.57-1.8,9.03-4.82,12.94c-1.66,2.11-4.21,5.12-5.42,6.47h-22.81v0.05
									c-19,0.47-34.33,15.96-34.52,35.03h-0.02v25.13h21.23v-24.78h0.01c0-7.82,6.36-14.19,14.19-14.19v-0.02h10.49l24.08,38.98
									h26.04l-26.64-42.89C431.64,439.04,436.61,433.78,440.07,429.71"/>
							</g>
						</g>
					</g>
					<g>
						<g>
							<rect x="581.11" y="371.17" class="st10" width="21.54" height="43.35"/>
						</g>
					</g>
					<g>
						<g>
							<g>
								<path class="st10" d="M648.1,414.51h-31.07v0c-19.64,0-35.62,15.84-35.89,35.42l-0.03,0v34.72h21.54v-34.23
									c0.01-7.93,6.46-14.38,14.39-14.38v-0.01h31.07v48.62h22.58V371.17H648.1V414.51z"/>
							</g>
						</g>
					</g>
					<g>
						<g>
							<polygon class="st10" points="170.93,416.32 170.93,414 170.93,392.39 228.73,392.39 228.73,371.17 149.7,371.17 
								149.7,416.32 170.93,416.32 							"/>
						</g>
					</g>
					<g>
						<g>
							<g>
								<path class="st10" d="M170.93,451.74L170.93,451.74c0-7.82,6.36-14.19,14.18-14.19v-0.02h40.3v-21.2h-40.71v0
									c-19.34,0.22-35.01,16.01-35.01,35.4v32.9h81.59v-21.22h-60.35V451.74z"/>
							</g>
						</g>
						<g>
							<g>
								<path class="st10" d="M528.5,442.59h-32.2l17.23-48.7l3.86,11.01l-0.12,0.04l13.05,36.74l0.29,0.83
									C530.03,442.55,529.33,442.59,528.5,442.59 M550.6,454.14c3.28-5.59,2.85-12.05,1.15-17.15l-13.85-38.09l-10.07-27.72h-29.5
									l-41.39,113.48h24.53l7.46-20.44h39.57C539.25,464.21,546.68,460.82,550.6,454.14"/>
							</g>
						</g>
						<g>
							<g>
								<path class="st10" d="M877.87,468.9c-0.14,0.3-0.33,0.53-0.57,0.7c-0.24,0.16-0.53,0.26-0.87,0.31
									c-0.34,0.05-0.71,0.07-1.13,0.07h-4.31v-4.14h3.58c0.35,0,0.73,0.01,1.15,0.04c0.42,0.02,0.8,0.09,1.15,0.21
									c0.35,0.12,0.64,0.3,0.87,0.56c0.23,0.25,0.35,0.62,0.35,1.11C878.08,468.22,878.01,468.6,877.87,468.9 M880.96,468.21
									c0-0.76-0.12-1.48-0.37-2.16c-0.24-0.67-0.7-1.23-1.37-1.67c-0.55-0.35-1.21-0.56-1.95-0.63c-0.74-0.07-1.43-0.1-2.05-0.1
									h-7.12v14.77h2.88v-6.26h2.89l3.27,6.26h3.37l-3.58-6.26c1.32-0.09,2.32-0.44,3.01-1.04
									C880.62,470.52,880.96,469.55,880.96,468.21"/>
							</g>
						</g>
						<g>
							<g>
								<path class="st10" d="M883.8,475.35c-0.57,1.33-1.34,2.5-2.33,3.49c-0.98,1-2.14,1.79-3.47,2.38
									c-1.33,0.59-2.75,0.88-4.26,0.88c-1.53,0-2.97-0.29-4.31-0.88c-1.34-0.59-2.51-1.38-3.49-2.38c-0.98-1-1.76-2.16-2.33-3.49
									c-0.57-1.33-0.85-2.76-0.85-4.29c0-1.51,0.28-2.92,0.85-4.24c0.57-1.32,1.34-2.48,2.33-3.48c0.98-0.99,2.15-1.78,3.49-2.35
									c1.34-0.57,2.78-0.85,4.31-0.85c1.51,0,2.93,0.29,4.26,0.85c1.33,0.57,2.49,1.35,3.47,2.35c0.99,1,1.76,2.16,2.33,3.48
									c0.57,1.32,0.85,2.73,0.85,4.24C884.65,472.59,884.37,474.02,883.8,475.35 M886.3,465.79c-0.71-1.63-1.68-3.06-2.92-4.28
									c-1.24-1.22-2.69-2.17-4.34-2.87c-1.66-0.69-3.42-1.04-5.3-1.04c-1.9,0-3.68,0.35-5.34,1.04c-1.66,0.7-3.11,1.65-4.34,2.87
									c-1.24,1.22-2.22,2.64-2.94,4.28c-0.72,1.63-1.08,3.39-1.08,5.27c0,1.88,0.36,3.64,1.08,5.3c0.72,1.66,1.7,3.1,2.94,4.33
									c1.24,1.23,2.69,2.19,4.34,2.9c1.66,0.71,3.44,1.06,5.34,1.06c1.88,0,3.64-0.35,5.3-1.06c1.66-0.71,3.11-1.67,4.34-2.9
									c1.24-1.23,2.21-2.67,2.92-4.33c0.71-1.66,1.06-3.43,1.06-5.3C887.36,469.18,887.01,467.42,886.3,465.79"/>
							</g>
						</g>
						<g>
							<g>
								<path class="st10" d="M793.51,434.83l-13.12-30l0,0l-14.71-33.66h-0.01h-4.59h-17.39l16.16,36.98h-0.03l19.65,44.9
									c2.4,5.49,7.82,9.03,13.81,9.03c5.99,0,11.41-3.54,13.81-9.03l20.88-47.71v79.32h21.98V371.17h-28.6L793.51,434.83z"/>
							</g>
						</g>
					</g>
					<g>
						<g>
							<rect x="736.62" y="411.09" class="st10" width="21.97" height="73.56"/>
						</g>
					</g>
					<g>
						<g>
							<polygon class="st10" points="537.94,464.93 544.99,484.65 569.07,484.65 561.9,464.93 							"/>
						</g>
					</g>
					<g>
						<g>
							<rect x="692.36" y="371.17" class="st10" width="22.58" height="113.48"/>
						</g>
					</g>
					<g>
						<g>
							<g>
								<path class="st10" d="M312.72,411.2c-1.05,1.81-2.56,4.22-3.61,5.87H283.7v0.02c-7.64,0-13.87-6.22-13.87-13.86h0v-11.3
									h28.59c6.63,0,10.69,0.3,13.25,1.66c2.86,1.5,4.06,4.51,4.06,8.28C315.73,405.63,314.38,408.34,312.72,411.2 M327.17,426.25
									c1.81-2.71,4.06-6.17,6.17-9.78c3.16-5.42,5.12-10.24,5.12-17.31c0-8.73-4.36-17.31-11.44-22.28
									c-6.17-4.37-13.7-5.72-26.04-5.72h-51.9v32.06c0,19.08,15.53,34.61,34.62,34.61h13.22c7.68,0,12.04,0.45,15.35,2.25
									c4.22,2.41,5.87,6.02,5.87,10.99c0,4.06-0.9,6.92-3.61,9.33c-3.16,2.71-7.52,3.46-17.01,3.46h-27.69v-26.03h-20.75v46.81
									h47.99c16.1,0,25.74-2.71,32.81-8.28c7.53-5.87,11.14-14.6,11.14-25.29c0-6.47-1.96-12.49-4.82-16.25
									C333.49,431.21,330.48,428.81,327.17,426.25"/>
							</g>
						</g>
						<g>
							<g>
								<path class="st10" d="M440.07,429.71c6.47-7.68,9.94-14.3,9.94-24.68c0-10.38-3.91-19.87-10.54-25.59
									c-7.98-6.78-16.71-8.28-30.86-8.28h-49.07v53.28h21.23v-32.06h25.13c9.48,0,14.15,0.75,17.01,2.86
									c3.16,2.41,4.21,5.41,4.21,9.78c0,5.57-1.8,9.03-4.82,12.94c-1.66,2.11-4.21,5.12-5.42,6.47h-22.81v0.05
									c-19,0.47-34.33,15.96-34.52,35.03h-0.02v25.13h21.23v-24.78h0.01c0-7.82,6.36-14.19,14.19-14.19v-0.02h10.49l24.08,38.98
									h26.04l-26.64-42.89C431.64,439.04,436.61,433.78,440.07,429.71"/>
							</g>
						</g>
					</g>
					<g>
						<g>
							<rect x="581.11" y="371.17" class="st10" width="21.54" height="43.35"/>
						</g>
					</g>
					<g>
						<g>
							<g>
								<path class="st10" d="M648.1,414.51h-31.07v0c-19.64,0-35.62,15.84-35.89,35.42l-0.03,0v34.72h21.54v-34.23
									c0.01-7.93,6.46-14.38,14.39-14.38v-0.01h31.07v48.62h22.58V371.17H648.1V414.51z"/>
							</g>
						</g>
					</g>
					<g>
						<g>
							<polygon class="st10" points="170.93,416.32 170.93,414 170.93,392.39 228.73,392.39 228.73,371.17 149.7,371.17 
								149.7,416.32 170.93,416.32 							"/>
						</g>
					</g>
					<g>
						<g>
							<g>
								<path class="st10" d="M170.93,451.74L170.93,451.74c0-7.82,6.36-14.19,14.18-14.19v-0.02h40.3v-21.2h-40.71v0
									c-19.34,0.22-35.01,16.01-35.01,35.4v32.9h81.59v-21.22h-60.35V451.74z"/>
							</g>
						</g>
						<g>
							<g>
								<path class="st10" d="M528.5,442.59h-32.2l17.23-48.7l3.86,11.01l-0.12,0.04l13.05,36.74l0.29,0.83
									C530.03,442.55,529.33,442.59,528.5,442.59 M550.6,454.14c3.28-5.59,2.85-12.05,1.15-17.15l-13.85-38.09l-10.07-27.72h-29.5
									l-41.39,113.48h24.53l7.46-20.44h39.57C539.25,464.21,546.68,460.82,550.6,454.14"/>
							</g>
						</g>
						<g>
							<g>
								<path class="st10" d="M877.87,468.9c-0.14,0.3-0.33,0.53-0.57,0.7c-0.24,0.16-0.53,0.26-0.87,0.31
									c-0.34,0.05-0.71,0.07-1.13,0.07h-4.31v-4.14h3.58c0.35,0,0.73,0.01,1.15,0.04c0.42,0.02,0.8,0.09,1.15,0.21
									c0.35,0.12,0.64,0.3,0.87,0.56c0.23,0.25,0.35,0.62,0.35,1.11C878.08,468.22,878.01,468.6,877.87,468.9 M880.96,468.21
									c0-0.76-0.12-1.48-0.37-2.16c-0.24-0.67-0.7-1.23-1.37-1.67c-0.55-0.35-1.21-0.56-1.95-0.63c-0.74-0.07-1.43-0.1-2.05-0.1
									h-7.12v14.77h2.88v-6.26h2.89l3.27,6.26h3.37l-3.58-6.26c1.32-0.09,2.32-0.44,3.01-1.04
									C880.62,470.52,880.96,469.55,880.96,468.21"/>
							</g>
						</g>
						<g>
							<g>
								<path class="st10" d="M883.8,475.35c-0.57,1.33-1.34,2.5-2.33,3.49c-0.98,1-2.14,1.79-3.47,2.38
									c-1.33,0.59-2.75,0.88-4.26,0.88c-1.53,0-2.97-0.29-4.31-0.88c-1.34-0.59-2.51-1.38-3.49-2.38c-0.98-1-1.76-2.16-2.33-3.49
									c-0.57-1.33-0.85-2.76-0.85-4.29c0-1.51,0.28-2.92,0.85-4.24c0.57-1.32,1.34-2.48,2.33-3.48c0.98-0.99,2.15-1.78,3.49-2.35
									c1.34-0.57,2.78-0.85,4.31-0.85c1.51,0,2.93,0.29,4.26,0.85c1.33,0.57,2.49,1.35,3.47,2.35c0.99,1,1.76,2.16,2.33,3.48
									c0.57,1.32,0.85,2.73,0.85,4.24C884.65,472.59,884.37,474.02,883.8,475.35 M886.3,465.79c-0.71-1.63-1.68-3.06-2.92-4.28
									c-1.24-1.22-2.69-2.17-4.34-2.87c-1.66-0.69-3.42-1.04-5.3-1.04c-1.9,0-3.68,0.35-5.34,1.04c-1.66,0.7-3.11,1.65-4.34,2.87
									c-1.24,1.22-2.22,2.64-2.94,4.28c-0.72,1.63-1.08,3.39-1.08,5.27c0,1.88,0.36,3.64,1.08,5.3c0.72,1.66,1.7,3.1,2.94,4.33
									c1.24,1.23,2.69,2.19,4.34,2.9c1.66,0.71,3.44,1.06,5.34,1.06c1.88,0,3.64-0.35,5.3-1.06c1.66-0.71,3.11-1.67,4.34-2.9
									c1.24-1.23,2.21-2.67,2.92-4.33c0.71-1.66,1.06-3.43,1.06-5.3C887.36,469.18,887.01,467.42,886.3,465.79"/>
							</g>
						</g>
						<g>
							<g>
								<path class="st10" d="M793.51,434.83l-13.12-30l0,0l-14.71-33.66h-0.01h-4.59h-17.39l16.16,36.98h-0.03l19.65,44.9
									c2.4,5.49,7.82,9.03,13.81,9.03c5.99,0,11.41-3.54,13.81-9.03l20.88-47.71v79.32h21.98V371.17h-28.6L793.51,434.83z"/>
							</g>
						</g>
					</g>
					<g>
						<g>
							<rect x="736.62" y="411.09" class="st10" width="21.97" height="73.56"/>
						</g>
					</g>
					<g>
						<g>
							<polygon class="st10" points="537.94,464.93 544.99,484.65 569.07,484.65 561.9,464.93 							"/>
						</g>
					</g>
				</g>
			</g>
		</g>
	</g>
	<g>
		<path class="st10" d="M147.85,563.68c0-34.4,20.83-55.93,51.76-55.93c15.7,0,25.54,6.87,31.88,12.92l-5.02,5.01
			c-6.04-6.03-14.2-11.02-26.85-11.02c-26.49,0-42.9,18.89-42.9,48.94c0,30.14,15.54,49.6,41.74,49.6c10.62,0,20.44-3.02,26-8.17
			v-33.76h-27.63v-6.44h35.86v43.01c-7.33,7.15-19.27,12.26-34.74,12.26C168.05,620.09,147.85,598.17,147.85,563.68z"/>
		<path class="st10" d="M267.66,509.73h34.26c23.8,0,39.47,7.9,39.47,28.64c0,19.75-15.66,30-39.47,30h-25.81v49.76h-8.44V509.73z
			 M299.73,561.96c21.21,0,32.99-7.63,32.99-23.6c0-16.31-11.78-22.24-32.99-22.24h-23.63v45.85H299.73z M308.05,563.92l35.6,54.19
			h-9.74l-33.9-51.99L308.05,563.92z"/>
		<path class="st10" d="M365.32,563.55c0-34.4,18.66-55.8,44.79-55.8c26.14,0,44.8,21.4,44.8,55.8c0,34.53-18.66,56.55-44.8,56.55
			C383.97,620.09,365.32,598.08,365.32,563.55z M446.1,563.55c0-30.14-14.53-48.9-35.99-48.9c-21.46,0-35.99,18.76-35.99,48.9
			c0,30.27,14.53,49.64,35.99,49.64C431.57,613.19,446.1,593.82,446.1,563.55z"/>
		<path class="st10" d="M480.8,577.56v-67.84h8.44v66.97c0,27.84,14.05,36.5,30.1,36.5c16.36,0,30.46-8.66,30.46-36.5v-66.97h7.98
			v67.84c0,32.85-18.33,42.53-38.44,42.53C499.19,620.09,480.8,610.41,480.8,577.56z"/>
		<path class="st10" d="M595.37,509.73h32.58c26.78,0,42.76,7.94,42.76,30.19c0,21.31-16.03,31.6-42.76,31.6h-24.19v46.61h-8.39
			V509.73z M625.87,565.12c24.46,0,36.19-7.39,36.19-25.2c0-18.1-11.78-23.8-36.19-23.8h-22.11v49H625.87z"/>
	</g>
</g>
</svg>
